<svg id="Layer_2" data-name="Layer 2" xmlns="http://www.w3.org/2000/svg" width="480.615" height="253.7273" viewBox="0 0 480.615 253.7273"><defs><style>.cls-1{fill:none;stroke:#fff;stroke-miterlimit:10;stroke-width:22.5px;}</style></defs><path class="cls-1" d="M138.7683,215.6364l-78.5227.0158s-33.43,0-33.43-40.9783,33.43-40.9782,33.43-40.9782h91.5a3.9358,3.9358,0,0,1,3.9359,3.9358v45.3127a3.9446,3.9446,0,0,0,.0791.7874c.7731,3.83,7.8983,31.9206,50.6046,31.9206,42.9729,0,49.445-27.9682,50.0851-31.4564a3.7724,3.7724,0,0,0,.0593-.681V137.6315a3.9359,3.9359,0,0,1,3.9359-3.9358h86.2118a3.9071,3.9071,0,0,1,.9363.1123c2.7271.6667,15.6752,4.5519,15.6752,18.22,0,9.4242-6.1555,16.1052-10.8721,19.8411a3.92,3.92,0,0,0,.1865,6.3279c4.6171,3.0866,10.47,8.9955,10.47,19.1176,0,15.3552-13.4691,17.9576-15.66,18.2793a3.7841,3.7841,0,0,1-.5567.0392l-135.6182.0191" transform="translate(-15.5659 -122.4457)"/><line class="cls-1" x1="331.5276" y1="52.928" x2="278.8669" y2="52.928"/><path class="cls-1" d="M496.1789,133.6957h-88.271a3.8986,3.8986,0,0,0-1.8584.4663c-3.5368,1.9155-16.36,9.5562-16.36,19.6442v44.8616c0,10.0475,7.4666,15.0522,10.1263,16.5162a3.8573,3.8573,0,0,0,1.8624.468l94.5009-.0156" transform="translate(-15.5659 -122.4457)"/><line class="cls-1" x1="374.1234" y1="52.928" x2="480.613" y2="52.9089"/><path class="cls-1" d="M132.9664,282.9822h62.289a.7837.7837,0,0,1,.6181,1.2656l-62.9071,80.6908" transform="translate(-15.5659 -122.4457)"/><path class="cls-1" d="M242.9607,282.9822l-61.0556,80.6841a.7837.7837,0,0,0,.6249,1.2566h60.4307" transform="translate(-15.5659 -122.4457)"/><path class="cls-1" d="M280.0341,282.9744h62.289a.7837.7837,0,0,1,.6181,1.2656l-62.9071,80.6908" transform="translate(-15.5659 -122.4457)"/><path class="cls-1" d="M390.0284,282.9744l-61.0556,80.6841a.7837.7837,0,0,0,.6249,1.2566h60.4307" transform="translate(-15.5659 -122.4457)"/></svg>