<svg id="Layer_2" data-name="Layer 2" xmlns="http://www.w3.org/2000/svg" width="968.0098" height="941.526" viewBox="0 0 968.0098 941.526"><defs><style>.cls-1{fill:none;stroke:#fff;stroke-miterlimit:10;stroke-width:45px;}</style></defs><path class="cls-1" d="M62.5652,197.5082l132.4556,50.3739a8.1026,8.1026,0,0,1,5.2222,7.5732V875.3571a8.1024,8.1024,0,0,1-11.0983,7.5282L67.6717,834.544a8.1025,8.1025,0,0,1-5.1065-7.5282V203.9844a8.1023,8.1023,0,0,1,6.3171-7.9032L570.1571,82.8455a8.1025,8.1025,0,0,1,4.6573.327l405.53,153.7259a8.1026,8.1026,0,0,1,5.23,7.5763V866.3529a8.1023,8.1023,0,0,1-6.4791,7.9381L467.0166,979.0081a8.1023,8.1023,0,0,1-4.5719-.3912L335.7686,929.1248a8.1024,8.1024,0,0,1-5.1538-7.5468V311.2a8.1024,8.1024,0,0,1,10.9825-7.5732l120.8388,45.9561a8.1028,8.1028,0,0,0,4.5768.35L985.575,238.8811" transform="translate(-40.0652 -60.1464)"/><path class="cls-1" d="M491.8869,323.3148" transform="translate(-40.0652 -60.1464)"/><line class="cls-1" x1="424.6077" y1="290.2867" x2="424.6077" y2="919.341"/><line class="cls-1" x1="532.4697" y1="22.162" x2="532.4697" y2="267.1879"/><path class="cls-1" d="M985.575,445.35,650.08,520.26a8.1024,8.1024,0,0,0-6.3367,7.9077V727.79a8.1023,8.1023,0,0,0,9.8895,7.9028L985.575,660.6259" transform="translate(-40.0652 -60.1464)"/><line class="cls-1" x1="160.1778" y1="743.3443" x2="290.5496" y2="713.9886"/></svg>